<svg id="Group_33159" data-name="Group 33159" xmlns="http://www.w3.org/2000/svg" xmlns:xlink="http://www.w3.org/1999/xlink" width="39.146" height="39.147" viewBox="0 0 39.146 39.147">
  <defs>
    <clipPath id="clip-path">
      <rect id="Rectangle_18766" data-name="Rectangle 18766" width="39.146" height="39.147" fill="#b55caf"/>
    </clipPath>
  </defs>
  <g id="Group_33158" data-name="Group 33158" clip-path="url(#clip-path)">
    <path id="Path_6875" data-name="Path 6875" d="M0,32.628V6.508c.041-.124.089-.246.121-.372A7.964,7.964,0,0,1,3.367,1.361a6.994,6.994,0,0,1,3.39-1.3C7.623-.011,8.5,0,9.37,0Q20.622,0,31.873,0A4.6,4.6,0,0,1,33.13.158a7.971,7.971,0,0,1,5.621,5.12,6.144,6.144,0,0,1,.394,2.2q-.024,12.3-.007,24.6a3.72,3.72,0,0,1-.122.943,8.39,8.39,0,0,1-1.941,3.64A8.187,8.187,0,0,1,33.3,38.945a4.859,4.859,0,0,1-1.431.2q-12.31-.01-24.619,0a4.563,4.563,0,0,1-1.257-.157A7.957,7.957,0,0,1,.316,33.673C.2,33.329.1,32.976,0,32.628M19.408,1.5q0,.027,0,.054c-3.394,0-6.788,0-10.182,0a17.875,17.875,0,0,0-2.391.087A6.168,6.168,0,0,0,1.561,7.606q-.055,2.935-.054,5.87Q1.52,22.5,1.56,31.527a5.556,5.556,0,0,0,.687,2.7,6,6,0,0,0,5.3,3.346c2.36.079,4.724.076,7.087.077q7.477,0,14.954-.034a20.5,20.5,0,0,0,2.767-.122,6.134,6.134,0,0,0,5.215-5.927q.067-4.222.067-8.446-.009-7.757-.073-15.515a5.985,5.985,0,0,0-.262-1.647,6.2,6.2,0,0,0-5.938-4.4Q25.388,1.53,19.408,1.5" transform="translate(0 0)" fill="#b55caf"/>
    <path id="Path_6876" data-name="Path 6876" d="M360.5,353.79a1.4,1.4,0,0,0,.143-.07,7.1,7.1,0,0,1,4.51-1.088,7.192,7.192,0,0,1,4.04,1.475A7.552,7.552,0,0,1,371.7,357.8a8.916,8.916,0,0,1,.413,2.888q.015,5.051.025,10.1c0,.226-.016.454,0,.678a.536.536,0,0,1-.235.547.6.6,0,0,1-.293.119c-2.176.021-4.352.031-6.528.055-.2,0-.289-.129-.422-.218a.628.628,0,0,1-.274-.587q-.023-5.381-.067-10.761a1.843,1.843,0,0,0-1.361-1.686,1.872,1.872,0,0,0-2.332,1.228,1.094,1.094,0,0,0-.07.368q-.065,4.272-.122,8.544-.016,1.228-.014,2.456a.475.475,0,0,1-.152.343,1,1,0,0,1-.848.313c-2.076-.028-4.152-.035-6.228-.049a.74.74,0,0,1-.586-.587q0-9.134,0-18.269a.878.878,0,0,1,.732-.668c.379-.011.759-.011,1.138-.011l5.091,0a.821.821,0,0,1,.83.687c.033.16.065.32.1.5m5.4,16.845h4.746c0-.071.009-.13.009-.188q-.037-4.8-.078-9.6a8.131,8.131,0,0,0-.431-2.744,5.637,5.637,0,0,0-2.795-3.312,6.35,6.35,0,0,0-3.278-.592,4.691,4.691,0,0,0-3.005,1.217c-.322.3-.612.63-.925.937a.654.654,0,0,1-.9.055,1.718,1.718,0,0,1-.258-.22.354.354,0,0,1-.093-.2c-.021-.525-.032-1.051-.046-1.576,0-.071-.008-.141-.012-.217h-4.642v16.448h4.646c0-.072.009-.137.01-.2.014-3.1.035-6.2.034-9.3a3.889,3.889,0,0,1,.264-1.455,3.479,3.479,0,0,1,6.484-.262,4.557,4.557,0,0,1,.241,1.707q.023,4.622.035,9.244c0,.085,0,.171,0,.27" transform="translate(-338.511 -338.507)" fill="#b55caf"/>
    <path id="Path_6877" data-name="Path 6877" d="M145.657,362.145q0,4.543,0,9.085a.506.506,0,0,1-.164.377.98.98,0,0,1-.813.3c-2.083-.028-4.166-.035-6.248-.049a.581.581,0,0,1-.518-.516q0-9.2,0-18.41a.7.7,0,0,1,.661-.594c.7-.016,1.4-.026,2.1-.026,1.344,0,2.688,0,4.032.022a1.707,1.707,0,0,1,.642.174.494.494,0,0,1,.278.49c.01,1.611.034,3.221.043,4.831.008,1.438,0,2.875,0,4.313Zm-1.512-8.231h-4.715v16.447h4.715Z" transform="translate(-132.404 -338.231)" fill="#b55caf"/>
    <path id="Path_6878" data-name="Path 6878" d="M140.733,157.305a3.7,3.7,0,0,1,3.82,4.568,3.484,3.484,0,0,1-2.91,2.7,3.944,3.944,0,0,1-3.589-.926,3.625,3.625,0,0,1,1.181-6.089,3.316,3.316,0,0,1,1.5-.257m-.045,5.821a2.744,2.744,0,0,0,1.258-.256,2.131,2.131,0,0,0-.074-3.818,2.738,2.738,0,0,0-1.926-.109,2.106,2.106,0,0,0-1.008,3.4,2.326,2.326,0,0,0,1.75.78" transform="translate(-131.397 -151.009)" fill="#b55caf"/>
  </g>
</svg>
