<svg xmlns="http://www.w3.org/2000/svg" xmlns:xlink="http://www.w3.org/1999/xlink" width="1920" height="586" viewBox="0 0 1920 586">
  <defs>
    <clipPath id="clip-path">
      <rect id="Rectangle_6665" data-name="Rectangle 6665" width="1920" height="586" transform="translate(0 4837)" fill="#fff" stroke="#707070" stroke-width="1"/>
    </clipPath>
  </defs>
  <g id="Mask_Group_4" data-name="Mask Group 4" transform="translate(0 -4837)" clip-path="url(#clip-path)">
    <g id="Group_4043" data-name="Group 4043">
      <g id="Group_4038" data-name="Group 4038" transform="translate(-53.24 5047) rotate(13)" style="mix-blend-mode: multiply;isolation: isolate">
        <path id="Path_3996" data-name="Path 3996" d="M3850.4,121.807C3807.614,65.091,3796,3.7,3760.289-7.881c-42.927-13.925-109,26.244-151.914-8.922-78.312-64.172-113.352-113.344-204.633-92.461S3306.4-32.639,3205.68,134.1" transform="translate(-3096.68 114.133)" fill="none" stroke="#35d3c7" stroke-linecap="round" stroke-linejoin="round" stroke-width="1.5"/>
        <path id="Path_3997" data-name="Path 3997" d="M3850.4,121.807C3807.614,65.091,3796,3.7,3760.289-7.881c-42.927-13.925-109,26.244-151.914-8.922-78.312-64.172-113.352-113.344-204.633-92.461S3306.4-32.639,3205.68,134.1" transform="translate(-3123.68 114.133)" fill="none" stroke="#35d3c7" stroke-linecap="round" stroke-linejoin="round" stroke-width="1.5"/>
        <path id="Path_3998" data-name="Path 3998" d="M3850.4,121.807C3807.614,65.091,3796,3.7,3760.289-7.881c-42.927-13.925-109,26.244-151.914-8.922-78.312-64.172-113.352-113.344-204.633-92.461S3306.4-32.639,3205.68,134.1" transform="translate(-3150.68 122.133)" fill="none" stroke="#35d3c7" stroke-linecap="round" stroke-linejoin="round" stroke-width="1.5"/>
        <path id="Path_3999" data-name="Path 3999" d="M3850.4,121.807C3807.614,65.091,3796,3.7,3760.289-7.881c-42.927-13.925-109,26.244-151.914-8.922-78.312-64.172-113.352-113.344-204.633-92.461S3306.4-32.639,3205.68,134.1" transform="translate(-3177.68 122.133)" fill="none" stroke="#35d3c7" stroke-linecap="round" stroke-linejoin="round" stroke-width="1.5"/>
        <path id="Path_4000" data-name="Path 4000" d="M3850.4,121.807C3807.614,65.091,3796,3.7,3760.289-7.881c-42.927-13.925-109,26.244-151.914-8.922-78.312-64.172-113.352-113.344-204.633-92.461S3306.4-32.639,3205.68,134.1" transform="translate(-3205.68 122.133)" fill="none" stroke="#35d3c7" stroke-linecap="round" stroke-linejoin="round" stroke-width="1.5"/>
      </g>
      <g id="Group_4040" data-name="Group 4040" transform="matrix(0.998, 0.07, -0.07, 0.998, 1501.605, 4901.854)" style="mix-blend-mode: multiply;isolation: isolate">
        <path id="Path_3996-2" data-name="Path 3996" d="M34.568,285.373c27.555-60.981,43.847-114.366,76.382-127.131C163.805,137.5,245.158,197.327,298,144.954c96.425-95.571,139.568-168.8,251.961-137.7S669.818,121.37,793.831,369.7" transform="translate(0 0)" fill="none" stroke="#35d3c7" stroke-linecap="round" stroke-linejoin="round" stroke-width="1.5"/>
        <path id="Path_3997-2" data-name="Path 3997" d="M35.739,283.711c27.234-60.493,42.588-112.67,75.211-125.469C163.805,137.5,245.158,197.327,298,144.954c96.425-95.571,139.568-168.8,251.961-137.7S669.818,121.37,793.831,369.7" transform="translate(23.256 0)" fill="none" stroke="#35d3c7" stroke-linecap="round" stroke-linejoin="round" stroke-width="1.5"/>
        <path id="Path_3998-2" data-name="Path 3998" d="M38.774,275.951c25.045-56.875,41.293-105.592,72.176-117.71C163.805,137.5,245.158,197.327,298,144.954c96.425-95.571,139.568-168.8,251.961-137.7S669.818,121.37,793.831,369.7" transform="translate(46.512 6.891)" fill="none" stroke="#35d3c7" stroke-linecap="round" stroke-linejoin="round" stroke-width="1.5"/>
        <path id="Path_3999-2" data-name="Path 3999" d="M39.819,273.579c24.484-55.937,40.7-103.4,71.131-115.338C163.805,137.5,245.158,197.327,298,144.954c96.425-95.571,139.568-168.8,251.961-137.7S669.818,121.37,793.831,369.7" transform="translate(69.768 6.891)" fill="none" stroke="#35d3c7" stroke-linecap="round" stroke-linejoin="round" stroke-width="1.5"/>
        <path id="Path_4000-2" data-name="Path 4000" d="M34.124,273.672c23.2-49.543,53.865-106.421,76.826-115.43C163.805,137.5,245.158,197.327,298,144.954c96.425-95.571,139.568-168.8,251.961-137.7S669.818,121.37,793.831,369.7" transform="translate(93.885 6.891)" fill="none" stroke="#35d3c7" stroke-linecap="round" stroke-linejoin="round" stroke-width="1.5"/>
      </g>
      <g id="Group_4039" data-name="Group 4039" transform="translate(25.758 5156.347)" style="mix-blend-mode: multiply;isolation: isolate">
        <path id="Path_3996-3" data-name="Path 3996" d="M3267.262,3.455c8.164,11.906,17.115,20.7,28.527,24.4,42.927,13.925,109-26.244,151.914,8.922,78.313,64.172,113.352,113.344,204.633,92.461,75.581-17.291,95.169-61.783,155.99-170.06" transform="translate(-2318.18 74)" fill="none" stroke="#35d3c7" stroke-linecap="round" stroke-linejoin="round" stroke-width="1.5"/>
        <path id="Path_3997-3" data-name="Path 3997" d="M3267.191,3.352c8.148,11.924,17.131,20.78,28.6,24.5,42.927,13.925,109-26.244,151.914,8.922,78.313,64.172,113.352,113.344,204.633,92.461,75.4-17.249,93.033-62.357,153.61-170.251" transform="translate(-2291.18 74)" fill="none" stroke="#35d3c7" stroke-linecap="round" stroke-linejoin="round" stroke-width="1.5"/>
        <path id="Path_3998-3" data-name="Path 3998" d="M3273.553,11.748c6.418,7.623,13.627,13.311,22.236,16.1,42.927,13.925,109-26.244,151.914,8.922,78.313,64.172,113.352,113.344,204.633,92.461,73.938-16.915,95.421-58.457,153.1-161.524" transform="translate(-2264.18 66)" fill="none" stroke="#35d3c7" stroke-linecap="round" stroke-linejoin="round" stroke-width="1.5"/>
        <path id="Path_3999-3" data-name="Path 3999" d="M3273.231,11.365c6.485,7.8,13.8,13.644,22.558,16.486,42.927,13.925,109-26.244,151.914,8.922,78.313,64.172,113.352,113.344,204.633,92.461,72.112-16.5,95.981-64.41,150.455-162.041" transform="translate(-2237.18 66)" fill="none" stroke="#35d3c7" stroke-linecap="round" stroke-linejoin="round" stroke-width="1.5"/>
        <path id="Path_4000-3" data-name="Path 4000" d="M3273.29,11.435c6.508,7.8,13.786,13.59,22.5,16.417,42.927,13.925,109-26.244,151.914,8.922,78.313,64.172,113.352,113.344,204.633,92.461,72.295-16.539,86.685-63.586,141.4-161.631" transform="translate(-2209.18 66)" fill="none" stroke="#35d3c7" stroke-linecap="round" stroke-linejoin="round" stroke-width="1.5"/>
      </g>
    </g>
  </g>
</svg>
