<svg xmlns="http://www.w3.org/2000/svg" width="48.947" height="64.738" viewBox="0 0 48.947 64.738">
  <g id="Grupo_2345" data-name="Grupo 2345" transform="translate(20111.006 20370.017)">
    <path id="Caminho_980" data-name="Caminho 980" d="M72.448,97.08l-3.136-4.061c8.122-6.265,18.7-17.321,17.171-22.552-2.03-3.1-10.8-.67-17.235,1.112-8.218,2.266-15.99,4.4-17.893-1.368-1.3-3.934.42-9.216,5.1-15.681,3.892-5.374,11.44-13.325,15.282-13.325v5.132a1.084,1.084,0,0,0,.27,0c-1.91.556-10.236,8.183-14.142,15.589-1.533,2.9-2.138,5.289-1.65,6.714,1.176.934,8.005-.983,11.661-2,9.108-2.537,19.43-5.395,23.207,1.533l.157.357c3.778,10.457-14.974,25.618-18.8,28.553" transform="translate(-20157.943 -20407.162)" fill="#365fd7"/>
    <path id="Caminho_981" data-name="Caminho 981" d="M82.14,42.78a7.27,7.27,0,1,1-7.27-7.27,7.27,7.27,0,0,1,7.27,7.27" transform="translate(-20162.732 -20405.527)" fill="#b55caf"/>
    <path id="Caminho_982" data-name="Caminho 982" d="M59.87,78.44a7.27,7.27,0,1,1-7.27-7.263,7.27,7.27,0,0,1,7.27,7.263" transform="translate(-20156.336 -20415.771)" fill="#b55caf"/>
    <path id="Caminho_983" data-name="Caminho 983" d="M108.141,77.56a7.27,7.27,0,1,1-7.27-7.27,7.27,7.27,0,0,1,7.27,7.27" transform="translate(-20170.199 -20415.516)" fill="#b55caf"/>
    <path id="Caminho_984" data-name="Caminho 984" d="M83.85,113.234a7.249,7.249,0,1,0,0,.028" transform="translate(-20163.223 -20425.775)" fill="#b55caf"/>
  </g>
</svg>
