<svg xmlns="http://www.w3.org/2000/svg" width="1920" height="1080" viewBox="0 0 1920 1080">
  <g id="Group_33176" data-name="Group 33176" transform="translate(-3561 -5773)">
    <g id="Group_33175" data-name="Group 33175">
      <rect id="Rectangle_18787" data-name="Rectangle 18787" width="1920" height="1080" transform="translate(3561 5773)" fill="#f8fafe"/>
      <g id="Grupo_2345" data-name="Grupo 2345" transform="translate(24370.006 26597.018)">
        <path id="Caminho_980" data-name="Caminho 980" d="M107.94,189.268l-8.309-10.761c21.522-16.6,49.544-45.9,45.5-59.76-5.38-8.215-28.614-1.776-45.67,2.946-21.777,6.006-42.371,11.672-47.415-3.625C48.61,107.644,53.16,93.648,65.572,76.514c10.314-14.241,30.315-35.309,40.495-35.309V54.8a2.872,2.872,0,0,0,.716,0c-5.061,1.473-27.124,21.683-37.475,41.308-4.062,7.687-5.666,14.016-4.372,17.792,3.117,2.475,21.212-2.606,30.9-5.29,24.135-6.722,51.488-14.3,61.5,4.062l.417.945c10.011,27.709-39.681,67.884-49.806,75.663" transform="translate(-20151.346 -20400.463)" fill="#365fd7"/>
        <path id="Caminho_981" data-name="Caminho 981" d="M106.131,54.775A19.265,19.265,0,1,1,86.865,35.51a19.265,19.265,0,0,1,19.265,19.265" transform="translate(-20136.543 -20405.527)" fill="#b55caf"/>
        <path id="Caminho_982" data-name="Caminho 982" d="M83.861,90.422A19.265,19.265,0,1,1,64.6,71.177,19.265,19.265,0,0,1,83.861,90.422" transform="translate(-20156.336 -20373.826)" fill="#b55caf"/>
        <path id="Caminho_983" data-name="Caminho 983" d="M132.131,89.555A19.265,19.265,0,1,1,112.865,70.29a19.265,19.265,0,0,1,19.265,19.265" transform="translate(-20113.432 -20374.611)" fill="#b55caf"/>
        <path id="Caminho_984" data-name="Caminho 984" d="M107.769,125.17a19.208,19.208,0,1,0,0,.074" transform="translate(-20134.951 -20342.881)" fill="#b55caf"/>
        <path id="Caminho_985" data-name="Caminho 985" d="M137.116,125.3v-8.955a2.778,2.778,0,0,1,3.06-2.983h33.762c6.742,0,9.332-1.473,9.332-5.781s-1.89-5.4-8.35-6.137l-18.889-2.078c-15.338-1.718-20.362-7.556-20.362-20.378,0-13.374,7.859-19.5,24.666-19.5h32.885a2.794,2.794,0,0,1,3.08,3.08v8.878a2.794,2.794,0,0,1-3.08,3.08H160.676c-6.12,0-8.952,1.345-8.952,6.006,0,4.035,1.718,5.269,7.368,5.892l18.529,2.078c17.187,2.1,21.966,8.35,21.966,20.775,0,13.865-7.734,19.168-25.762,19.168H140.2a2.778,2.778,0,0,1-3.06-3.117Z" transform="translate(-20076.037 -20384.229)" fill="#3d2162"/>
        <path id="Caminho_986" data-name="Caminho 986" d="M174.38,101.152V86.309c0-17,5.666-26.879,25.406-26.879h20.362c19.756,0,25.406,9.823,25.406,26.879v14.847c0,17.567-5.666,27.239-25.406,27.239H199.786C180.026,128.5,174.38,118.719,174.38,101.152Zm45.33,12.163c7.368,0,9.557-1.89,9.557-10.445V84.836c0-8.33-2.078-10.293-9.557-10.293H200.105c-7.556,0-9.577,1.89-9.577,10.293v18.038c.131,8.481,2.246,10.522,9.577,10.522Z" transform="translate(-20041.635 -20384.264)" fill="#3d2162"/>
        <path id="Caminho_987" data-name="Caminho 987" d="M223.6,136.706V85.424h-5.138a2.795,2.795,0,0,1-3.08-3.08V73.886a2.795,2.795,0,0,1,3.08-3.08h5.024c0-17.17,5.4-24.158,25.406-24.158h9.332a2.778,2.778,0,0,1,3.06,3.06v8.1a2.778,2.778,0,0,1-3.06,3.06h-9.335c-7.97,0-9.2,1.89-9.2,9.934h18.529a2.778,2.778,0,0,1,3.06,3.08v8.461a2.778,2.778,0,0,1-3.06,3.08H239.687v51.279a2.794,2.794,0,0,1-3.077,3.174h-9.934a2.795,2.795,0,0,1-3.08-3.175Z" transform="translate(-20005.213 -20395.646)" fill="#3d2162"/>
        <path id="Caminho_988" data-name="Caminho 988" d="M254.716,149.515v-8.952a2.778,2.778,0,0,1,3.08-3.06h31.032c7.365,0,9.708-2.69,9.708-10.445V115.726c-2.835,5.515-7.99,8.33-17.793,8.33h-11.05c-19.756,0-25.406-9.688-25.406-27.239v-34.3a2.778,2.778,0,0,1,3.06-3.08h10.068a2.794,2.794,0,0,1,3.08,3.08V98.6c0,8.6,2.209,10.425,9.443,10.425h19.02c6.5,0,9.577-1.587,9.577-10.425V62.52a2.778,2.778,0,0,1,3.06-3.08h10.162a2.778,2.778,0,0,1,3.06,3.08v62.82c0,16.814-6.251,27.239-25.893,27.239H257.8a2.794,2.794,0,0,1-3.08-3.08Z" transform="translate(-19979.518 -20384.275)" fill="#3d2162"/>
        <path id="Caminho_989" data-name="Caminho 989" d="M287.16,108.9c0-14,5.269-19.168,21.966-20.869l25.762-2.569a3.776,3.776,0,0,0,3.928-4.419c0-5.024-2.209-6.5-8.6-6.5H295.735a2.778,2.778,0,0,1-3.06-3.094V62.518a2.778,2.778,0,0,1,3.06-3.08H330.6c17.661,0,24.421,6.272,24.421,20.247v45.653a2.794,2.794,0,0,1-3.08,3.174H341.876a2.778,2.778,0,0,1-3.06-3.08v-5.666c-3.191,5.892-8.1,8.841-18.774,8.841h-7.122C296.472,128.512,287.16,122.846,287.16,108.9Zm40.74,4.91c8.1,0,10.916-2.69,10.916-10.559V97.349l-26.99,2.69c-6.517.605-8.35,2.455-8.35,7.233,0,4.419,3.191,6.517,9.312,6.517Z" transform="translate(-19941.4 -20384.273)" fill="#3d2162"/>
      </g>
    </g>
  </g>
</svg>
