<svg xmlns="http://www.w3.org/2000/svg" width="197.992" height="64.738" viewBox="0 0 197.992 64.738">
  <g id="Grupo_2345" data-name="Grupo 2345" transform="translate(20111.006 20370.018)">
    <path id="Caminho_980" data-name="Caminho 980" d="M72.448,97.08l-3.136-4.061c8.122-6.265,18.7-17.321,17.171-22.552-2.03-3.1-10.8-.67-17.235,1.112-8.218,2.266-15.99,4.4-17.893-1.368-1.3-3.934.42-9.216,5.1-15.681,3.892-5.374,11.44-13.325,15.282-13.325v5.132a1.084,1.084,0,0,0,.27,0c-1.91.556-10.236,8.183-14.142,15.589-1.533,2.9-2.138,5.289-1.65,6.714,1.176.934,8.005-.983,11.661-2,9.108-2.537,19.43-5.395,23.207,1.533l.157.357c3.778,10.457-14.974,25.618-18.8,28.553" transform="translate(-20157.943 -20407.162)" fill="#365fd7"/>
    <path id="Caminho_981" data-name="Caminho 981" d="M82.14,42.78a7.27,7.27,0,1,1-7.27-7.27,7.27,7.27,0,0,1,7.27,7.27" transform="translate(-20162.732 -20405.527)" fill="#b55caf"/>
    <path id="Caminho_982" data-name="Caminho 982" d="M59.87,78.44a7.27,7.27,0,1,1-7.27-7.263,7.27,7.27,0,0,1,7.27,7.263" transform="translate(-20156.336 -20415.771)" fill="#b55caf"/>
    <path id="Caminho_983" data-name="Caminho 983" d="M108.141,77.56a7.27,7.27,0,1,1-7.27-7.27,7.27,7.27,0,0,1,7.27,7.27" transform="translate(-20170.199 -20415.516)" fill="#b55caf"/>
    <path id="Caminho_984" data-name="Caminho 984" d="M83.85,113.234a7.249,7.249,0,1,0,0,.028" transform="translate(-20163.223 -20425.775)" fill="#b55caf"/>
    <path id="Caminho_985" data-name="Caminho 985" d="M136.216,84.308V80.928A1.048,1.048,0,0,1,137.37,79.8h12.741c2.544,0,3.522-.556,3.522-2.181s-.713-2.038-3.151-2.316l-7.128-.784c-5.788-.648-7.684-2.852-7.684-7.69,0-5.047,2.966-7.36,9.308-7.36h12.41a1.055,1.055,0,0,1,1.162,1.162v3.35a1.055,1.055,0,0,1-1.162,1.162H145.106c-2.31,0-3.378.508-3.378,2.266,0,1.523.648,1.989,2.78,2.223l6.992.784c6.486.791,8.289,3.151,8.289,7.84,0,5.232-2.919,7.233-9.722,7.233h-12.69a1.048,1.048,0,0,1-1.155-1.176Z" transform="translate(-20182.281 -20412.404)" fill="#3d2162"/>
    <path id="Caminho_986" data-name="Caminho 986" d="M174.38,75.175v-5.6c0-6.415,2.138-10.143,9.587-10.143h7.684c7.456,0,9.587,3.707,9.587,10.143v5.6c0,6.629-2.138,10.279-9.587,10.279h-7.684C176.511,85.5,174.38,81.8,174.38,75.175Zm17.106,4.59c2.78,0,3.607-.713,3.607-3.942V69.017c0-3.143-.784-3.884-3.607-3.884h-7.4c-2.852,0-3.614.713-3.614,3.884v6.807c.049,3.2.848,3.971,3.614,3.971Z" transform="translate(-20193.4 -20412.396)" fill="#3d2162"/>
    <path id="Caminho_987" data-name="Caminho 987" d="M218.469,80.623V61.27H216.53a1.055,1.055,0,0,1-1.162-1.162V56.916a1.055,1.055,0,0,1,1.162-1.162h1.9c0-6.48,2.038-9.117,9.587-9.117h3.522a1.048,1.048,0,0,1,1.155,1.155V50.85a1.048,1.048,0,0,1-1.155,1.155h-3.523c-3.008,0-3.471.713-3.471,3.749h6.992a1.048,1.048,0,0,1,1.155,1.162v3.193a1.048,1.048,0,0,1-1.155,1.162h-6.992V80.623a1.054,1.054,0,0,1-1.161,1.2h-3.749a1.055,1.055,0,0,1-1.162-1.2Z" transform="translate(-20205.172 -20408.723)" fill="#3d2162"/>
    <path id="Caminho_988" data-name="Caminho 988" d="M248.212,93.42V90.042a1.048,1.048,0,0,1,1.162-1.155h11.711c2.779,0,3.664-1.015,3.664-3.942V80.669c-1.07,2.081-3.015,3.143-6.714,3.143h-4.17c-7.456,0-9.587-3.656-9.587-10.279V60.589a1.048,1.048,0,0,1,1.155-1.162h3.8a1.055,1.055,0,0,1,1.162,1.162V74.2c0,3.244.834,3.934,3.563,3.934h7.178c2.452,0,3.614-.6,3.614-3.934V60.59a1.048,1.048,0,0,1,1.155-1.162h3.835a1.048,1.048,0,0,1,1.155,1.162V84.3c0,6.345-2.359,10.279-9.772,10.279H249.375a1.055,1.055,0,0,1-1.162-1.162Z" transform="translate(-20213.475 -20412.395)" fill="#3d2162"/>
    <path id="Caminho_989" data-name="Caminho 989" d="M287.16,78.095c0-5.282,1.989-7.233,8.289-7.876l9.722-.97a1.425,1.425,0,0,0,1.482-1.668c0-1.9-.834-2.452-3.244-2.452H290.4a1.048,1.048,0,0,1-1.155-1.168V60.59a1.048,1.048,0,0,1,1.155-1.162h13.159c6.665,0,9.216,2.367,9.216,7.641V84.3a1.055,1.055,0,0,1-1.162,1.2h-3.8a1.048,1.048,0,0,1-1.155-1.162V82.194c-1.2,2.223-3.058,3.336-7.085,3.336h-2.688C290.674,85.494,287.16,83.356,287.16,78.095Zm15.374,1.853c3.058,0,4.119-1.015,4.119-3.985V73.734L296.468,74.75c-2.459.228-3.151.926-3.151,2.73,0,1.668,1.2,2.459,3.514,2.459Z" transform="translate(-20225.795 -20412.395)" fill="#3d2162"/>
  </g>
</svg>
