<svg xmlns="http://www.w3.org/2000/svg" width="38.938" height="23.365" viewBox="0 0 38.938 23.365">
  <path id="noun-usa-flag-5509212" d="M105,132.99v23.365h38.938V132.99Zm1.857.7.172.511.539.024-.433.322.152.517-.44-.312-.445.3.16-.515-.426-.33h.539Zm2.876,0,.173.511.539.024-.433.322.152.517-.44-.312-.445.3.16-.515-.427-.33h.539Zm2.875,0,.172.511.539.024-.432.322.151.517-.44-.312-.445.3.162-.515-.428-.33h.54Zm2.876,0,.173.511.539.024-.433.322.152.517-.44-.312-.445.3.162-.515-.428-.33h.539Zm2.876,0,.173.511.539.024-.433.322.152.517-.44-.312-.445.3.16-.515-.426-.33h.539Zm2.875,0,.173.511.539.024-.432.322.151.517-.44-.312-.445.3.162-.515-.428-.33h.539Zm1.847,1.1h19.992v1.8H123.083Zm-14.788.179.172.511.539.023-.433.322.152.519-.44-.312-.445.3.16-.515-.426-.33h.539Zm2.875,0,.172.511.539.023-.432.322.151.519-.44-.312-.445.3.162-.515-.427-.33h.539Zm2.876,0,.173.511.539.023-.432.322.151.519-.44-.312-.445.3.162-.515-.428-.33h.54Zm2.876,0,.173.511.539.023-.433.322.152.519-.44-.312-.446.3.16-.515-.427-.33h.539Zm2.875,0,.174.511.539.023-.433.322.152.519-.44-.312-.445.3.16-.515-.427-.33h.539Zm-12.941,1.175.172.511.539.024-.433.322.152.517-.44-.312-.445.3.16-.515-.426-.33h.539Zm2.876,0,.173.511.539.024-.433.322.152.517-.44-.312-.445.3.16-.515-.427-.33h.539Zm2.875,0,.172.511.539.024-.432.322.151.517-.44-.312-.445.3.162-.515-.428-.33h.54Zm2.876,0,.173.511.539.024-.433.322.152.517-.44-.312-.445.3.162-.515-.428-.33h.539Zm2.876,0,.173.511.539.024-.433.322.152.517-.44-.312-.445.3.16-.515-.427-.33h.539Zm2.875,0,.173.511.539.024-.432.322.151.517-.44-.312-.445.3.162-.515-.428-.33h.539Zm-12.941,1.245.172.511.539.024-.433.322.152.517-.44-.312-.445.3.16-.515-.426-.33h.539Zm2.875,0,.172.511.539.024-.432.322.151.517-.44-.312-.445.3.162-.515-.427-.33h.539Zm2.876,0,.173.511.539.024-.432.322.151.517-.44-.312-.445.3.162-.515-.428-.33h.54Zm2.876,0,.173.511.539.024-.433.322.152.517-.44-.312-.446.3.16-.515-.427-.33h.539Zm2.875,0,.174.511.539.024-.433.322.152.517-.44-.312-.445.3.16-.515-.427-.33h.539Zm3.285,1h19.992v1.8H123.082Zm-16.226.215.172.511.539.024-.433.322.152.517-.44-.312-.445.3.16-.515-.426-.33h.539Zm2.876,0,.173.511.539.024-.433.322.152.517-.44-.312-.445.3.16-.515-.427-.33h.539Zm2.875,0,.172.511.539.024-.432.322.151.517-.44-.312-.445.3.162-.515-.428-.33h.54Zm2.876,0,.173.511.539.024-.433.322.152.517-.44-.312-.445.3.162-.515-.428-.33h.539Zm2.876,0,.173.511.539.024-.433.322.152.517-.44-.312-.445.3.16-.515-.427-.33h.539Zm2.875,0,.173.511.539.024-.432.322.151.517-.44-.312-.445.3.162-.515-.428-.33h.539Zm-12.941,1.21.172.511.539.024-.433.322.152.517-.44-.312-.445.3.16-.515-.426-.33h.539Zm2.875,0,.172.511.539.024-.432.322.151.517-.44-.312-.445.3.162-.515-.427-.33h.539Zm2.876,0,.173.511.539.024-.432.322.151.517-.44-.312-.445.3.162-.515-.428-.33h.54Zm2.876,0,.173.511.539.024-.433.322.152.517-.44-.312-.446.3.16-.515-.427-.33h.539Zm2.875,0,.174.511.539.024-.433.322.152.517-.44-.312-.445.3.16-.515-.427-.33h.539Zm-12.941,1.245.172.511.539.024-.433.322.152.517-.44-.312-.445.3.16-.515-.426-.33h.539Zm2.876,0,.173.511.539.024-.433.322.152.517-.44-.312-.445.3.16-.515-.427-.33h.539Zm2.875,0,.172.511.539.024-.432.322.151.517-.44-.312-.445.3.162-.515-.428-.33h.54Zm2.876,0,.173.511.539.024-.433.322.152.517-.44-.312-.445.3.162-.515-.428-.33h.539Zm2.876,0,.173.511.539.024-.433.322.152.517-.44-.312-.445.3.16-.515-.427-.33h.539Zm2.875,0,.173.511.539.024-.432.322.151.517-.44-.312-.445.3.162-.515-.428-.33h.539Zm1.847.923h19.992v1.8H123.082Zm-14.788.251.172.512.539.023-.433.322.152.517-.44-.313-.445.3.16-.515-.426-.33h.539Zm2.875,0,.172.512.539.023-.432.322.151.517-.44-.313-.445.3.162-.515-.427-.33h.539Zm2.876,0,.173.512.539.023-.432.322.151.517-.44-.313-.445.3.162-.515-.428-.33h.54Zm2.876,0,.173.512.539.023-.433.322.152.517-.44-.313-.446.3.16-.515-.427-.33h.539Zm2.875,0,.174.512.539.023-.433.322.152.517-.44-.313-.445.3.16-.515-.427-.33h.539Zm-12.941,1.281.172.511.539.024-.433.322.152.517-.44-.312-.445.3.16-.515-.426-.33h.539Zm2.876,0,.173.511.539.024-.433.322.152.517-.44-.312-.445.3.16-.515-.427-.33h.539Zm2.875,0,.172.511.539.024-.432.322.151.517-.44-.312-.445.3.162-.515-.428-.33h.54Zm2.876,0,.173.511.539.024-.433.322.152.517-.44-.312-.445.3.162-.515-.428-.33h.539Zm2.876,0,.173.511.539.024-.433.322.152.517-.44-.312-.445.3.16-.515-.427-.33h.539Zm2.875,0,.173.511.539.024-.432.322.151.517-.44-.312-.445.3.162-.515-.428-.33h.539Zm-15.372,2.063h37.211v1.8H105.862Zm0,3.593h37.211v1.8H105.862Zm0,3.595h37.211v1.8H105.862Z" transform="translate(-105 -132.99)" fill="#08194d" fill-rule="evenodd"/>
</svg>
